<?xml version="1.0" encoding="UTF-8"?>
<svg id="Layer_2" xmlns="http://www.w3.org/2000/svg" viewBox="0 0 82.08 57.68">
  <defs>
    <style>
      .cls-1 {
        fill: #fff;
      }
    </style>
  </defs>
  <g id="Layer_1-2" data-name="Layer_1">
    <path class="cls-1" d="M34.6,38.97h.8v18.63h-.8v-18.63ZM42.16,56.66l.22.91h1.4l-1.28-5.4h-1.51l-2.62,5.4h1.49l.4-.91h1.89ZM41.3,54.39c.08-.19.15-.36.24-.64,0,.09.02.15.03.19.02.16.03.21.12.63l.22,1.03h-1.14l.53-1.21ZM44.35,57.57h2.1c.5,0,.76-.03,1.02-.14.61-.24,1.01-.83,1.01-1.49,0-.38-.13-.7-.36-.9-.17-.15-.29-.2-.63-.28.34-.15.47-.26.63-.5.15-.23.24-.53.24-.84,0-.4-.15-.77-.42-.98-.25-.2-.57-.28-1.25-.28h-1.69l-.65,5.4ZM46.35,55.33c.58,0,.74.11.74.51,0,.46-.25.66-.91.66h-.36l.13-1.17h.4ZM46.45,53.25c.5,0,.64.1.64.47,0,.42-.24.6-.83.6h-.19l.13-1.07h.25ZM53.02,52.17l-.36,3.08c-.07.49-.12.67-.29.87-.16.18-.42.27-.75.27-.59,0-.87-.28-.87-.84,0-.14,0-.29.02-.45l.35-2.92h-1.33l-.35,2.92c-.04.33-.06.58-.06.74,0,1.16.83,1.85,2.21,1.85.78,0,1.41-.21,1.81-.6.34-.33.47-.75.6-1.78l.37-3.13h-1.34ZM56.67,57.57h1.75c.54,0,1.5-.02,2.3-.7.47-.4.89-1.04.89-2.21,0-.78-.21-1.39-.67-1.82-.57-.54-1.37-.67-2.12-.67h-1.5l-.65,5.4ZM58.88,53.36c.29,0,.67.04.96.31.23.22.38.58.38,1.06,0,.51-.18.96-.48,1.24-.13.13-.5.41-1.19.41h-.4l.36-3.02h.37ZM66.12,52.17l-.25,2h-1.94l.24-2h-1.34l-.65,5.4h1.34l.27-2.21h1.94l-.26,2.21h1.34l.65-5.4h-1.34ZM71.25,56.66l.22.91h1.4l-1.28-5.4h-1.51l-2.62,5.4h1.49l.4-.91h1.89ZM70.39,54.39c.08-.19.15-.36.24-.64,0,.09.02.15.03.19.02.16.03.21.12.63l.22,1.03h-1.14l.53-1.21ZM73.43,57.57h2.1c.5,0,.76-.03,1.02-.14.61-.24,1.01-.83,1.01-1.49,0-.38-.13-.7-.36-.9-.17-.15-.29-.2-.63-.28.34-.15.47-.26.63-.5.15-.23.24-.53.24-.84,0-.4-.15-.77-.42-.98-.25-.2-.57-.28-1.25-.28h-1.69l-.65,5.4ZM75.44,55.33c.58,0,.74.11.74.51,0,.46-.25.66-.91.66h-.36l.13-1.17h.4ZM75.54,53.25c.5,0,.64.1.64.47,0,.42-.24.6-.83.6h-.19l.13-1.07h.25ZM78.87,52.17l-.65,5.4h1.34l.65-5.4h-1.34ZM43.79,48.11c-.06-.06-.12-.12-.2-.15-.15-.07-.35-.07-.52,0-.08.04-.16.09-.23.15-.07.06-.12.14-.17.22-.05.08-.07.18-.09.27-.01.1,0,.19.02.27.02.09.07.16.12.22.06.06.12.11.2.15.08.04.17.06.26.06s.18-.02.27-.06c.08-.04.16-.09.23-.15.07-.06.13-.13.17-.22.05-.08.07-.18.09-.27.01-.1,0-.19-.02-.28-.03-.09-.07-.16-.12-.22M42.28,48.11c-.06-.06-.12-.12-.2-.15-.15-.07-.35-.07-.53,0-.09.04-.16.09-.23.15-.07.06-.13.14-.17.22-.04.08-.07.17-.09.27-.01.1,0,.19.02.27.02.09.07.16.12.22.06.06.12.11.2.15.08.04.17.06.26.06s.18-.02.27-.06c.08-.04.16-.09.23-.15.07-.06.13-.13.17-.21.04-.08.07-.17.09-.27.01-.1,0-.19-.02-.27-.02-.08-.06-.16-.12-.22M58.72,46.51h0c-.06-.06-.12-.12-.2-.15-.15-.07-.35-.07-.53,0-.09.04-.16.09-.23.15-.07.06-.13.13-.17.22-.04.09-.07.18-.09.27-.01.1,0,.19.02.27.02.09.07.16.12.22.06.06.12.11.2.15.08.04.17.06.26.06s.18-.02.27-.06c.08-.04.16-.09.23-.15.07-.06.12-.13.17-.21.04-.09.07-.18.09-.27.01-.1,0-.19-.02-.27-.02-.08-.07-.16-.12-.22M66.71,41.09c.06.06.12.11.2.15.08.04.17.06.26.06s.18-.02.27-.06c.09-.04.16-.09.23-.15.07-.06.12-.13.17-.22.04-.08.07-.17.09-.27.01-.1,0-.19-.02-.28-.02-.08-.07-.16-.12-.22-.06-.06-.12-.12-.2-.15-.15-.07-.36-.07-.53,0-.09.04-.16.09-.23.15-.07.06-.12.13-.17.22-.05.08-.07.17-.09.27-.01.1,0,.19.02.27.03.09.07.16.12.22M68.18,42.58c.13.19.22.42.27.67.04.25.05.53.01.83l-.19,1.57h-8.52c-.19,0-.39-.04-.58-.12-.17-.07-.33-.18-.47-.31-.11.12-.25.23-.42.31-.18.09-.41.13-.67.13h-12.26c-.04.09-.09.19-.14.28-.15.25-.36.47-.61.67-.25.2-.55.35-.9.47-.34.12-.73.18-1.15.18-.39,0-.74-.04-1.02-.11-.29-.08-.53-.18-.74-.3-.2-.12-.37-.27-.49-.43-.12-.16-.22-.32-.28-.49-.07-.17-.1-.33-.12-.49-.01-.16-.01-.3,0-.42.02-.15.06-.3.11-.46.06-.15.12-.31.2-.46.08-.15.17-.3.27-.44.1-.14.21-.27.32-.39l.03-.03,1.1.62-.04.05c-.07.08-.14.17-.2.26-.06.09-.12.19-.16.28-.05.09-.09.18-.12.28-.03.09-.05.17-.06.25,0,.07-.01.14,0,.22,0,.07.02.15.05.23.03.08.07.15.13.22.06.07.14.13.24.19.1.06.23.1.38.13.15.03.33.05.54.05s.39-.02.55-.07c.16-.04.3-.11.42-.19.12-.08.21-.17.28-.28.07-.1.11-.22.12-.35l.08-.65h13.26c.09,0,.15-.02.19-.06.03-.03.07-.1.09-.26l.23-1.92h1.43l-.25,2.05h0c.11.07.23.12.36.15.15.03.29.04.42.04h3.61c.04-.07.09-.15.13-.24.05-.09.11-.18.18-.28l.46-3.83h1.43l-.27,2.22c.19-.11.39-.2.6-.26.24-.08.5-.12.77-.12.32,0,.6.06.83.16.23.11.41.26.55.45M67.04,44.13c.02-.19.02-.35,0-.47-.02-.12-.06-.22-.12-.29-.06-.07-.13-.12-.22-.15-.2-.07-.48-.07-.77.06-.16.07-.31.17-.46.29-.15.12-.3.27-.43.44-.12.14-.22.3-.31.46h2.28l.04-.33M77.56,42.23h1.44l-.41,3.41h-5.85c-.13.26-.3.48-.5.67-.21.19-.45.35-.73.47-.27.13-.58.23-.91.3-.33.07-.68.12-1.05.16h-.06s0-1.23,0-1.23h.05c.23-.01.44-.03.62-.05.18-.02.35-.06.5-.1.15-.04.28-.1.4-.17.07-.04.14-.09.2-.14-.02,0-.03,0-.05,0-.07,0-.13,0-.18,0-.24,0-.47-.03-.68-.09-.22-.06-.42-.16-.58-.29-.17-.13-.29-.3-.38-.51-.09-.21-.11-.46-.08-.75.03-.25.11-.49.23-.71.12-.22.28-.42.47-.58.19-.17.42-.29.67-.39.26-.09.54-.14.84-.14.12,0,.25.01.39.03s.26.06.39.12c.12.06.24.13.35.23.11.1.2.22.28.37.07.15.13.32.15.52.03.2.03.44,0,.7l-.05.39h4.26l.27-2.24ZM71.66,44.07c.03-.27,0-.47-.07-.6-.08-.12-.19-.18-.35-.18-.07,0-.14.01-.21.04-.07.02-.12.06-.17.11-.05.05-.09.1-.13.17s-.06.14-.07.23c-.01.09,0,.17.01.25.02.07.05.14.1.2.05.06.12.1.2.13.08.03.18.05.3.05h.34l.05-.39M78.08,46.51h0c-.06-.06-.12-.12-.2-.15-.15-.07-.35-.07-.53,0-.09.04-.16.09-.23.15-.07.06-.13.14-.17.22-.04.09-.07.18-.09.27-.01.1,0,.19.02.27.02.09.07.16.12.22.06.06.12.11.2.15.08.04.17.06.26.06s.18-.02.27-.06c.08-.04.16-.09.23-.15.07-.06.12-.13.17-.22.04-.08.07-.17.09-.27.01-.1,0-.19-.02-.27-.02-.08-.07-.16-.12-.22M79.58,45.64h1.43l.66-5.52h-1.43l-.66,5.52ZM81.49,38.57h0s-.08-.02-.11-.04c-.03-.02-.05-.04-.07-.06-.01-.02-.02-.04-.01-.07,0-.03.02-.06.07-.09.08-.05.21-.05.35-.04.06,0,.11.02.16.04l.06.02.15-.71-.24-.03c-.06,0-.1-.01-.15-.02-.04,0-.08,0-.12,0-.15,0-.28,0-.42.04-.11.03-.2.08-.29.14-.09.06-.17.14-.23.24s-.1.21-.12.34c0,.07,0,.15.03.23h-.22l-.08.7h1.66l.09-.7h-.38s-.08,0-.12-.01M30.27,0L10.09,20.6h20.18v18.63h-10.09v-10.3H0v-8.33L20.18,0h10.09ZM54.78,30.89h-10.09l10.09-10.3v10.3ZM34.6,0h10.09l-10.09,10.3V0ZM44.68,20.6v10.3h0s-10.09,0-10.09,0v-10.3l10.09-10.3V0h10.09v10.3l-10.09,10.3Z"/>
  </g>
</svg>